<svg version="1" xmlns="http://www.w3.org/2000/svg" width="400" height="400" viewBox="0 0 300.000000 300.000000"><path d="M113 100.5V125h35v13h-16.5c-13.9 0-16.5.2-16.5 1.5s-4.9 1.5-35.7 1.7l-35.8.3v30l8.3.3c4.5.2 8.2.5 8.2.8 0 .3-3.6 14-8 30.4s-8 30.6-8 31.4c0 1.4 2.1 1.6 15.5 1.6h15.4l1.5-5.2c1.3-4.4 11.1-41.3 14.7-55.1l1-3.7h122.6l6.1 22.7c3.4 12.6 7.2 26.8 8.5 31.8l2.4 9 15.6.3c13.7.2 15.7.1 15.7-1.3 0-.9-3.6-14.9-8-31.2-4.4-16.4-8-30.1-8-30.5 0-.4 3.7-.8 8.3-1l8.2-.3v-30l-31.2-.3c-26.9-.2-31.3-.4-31.3-1.7 0-1.3-2.6-1.5-16.5-1.5H168v-13h35V76h-90v24.5z"/></svg>